<mxfile host="app.diagrams.net" agent="Mozilla/5.0 (Windows NT 10.0; Win64; x64) AppleWebKit/537.36 (KHTML, like Gecko) Chrome/127.0.0.0 Safari/537.36" version="24.7.7">
  <diagram id="R2lEEEUBdFMjLlhIrx00" name="Page-1">
    <mxGraphModel dx="2443" dy="2009" grid="1" gridSize="10" guides="1" tooltips="1" connect="1" arrows="1" fold="1" page="1" pageScale="1" pageWidth="850" pageHeight="1100" math="0" shadow="0" extFonts="Permanent Marker^https://fonts.googleapis.com/css?family=Permanent+Marker">
      <root>
        <mxCell id="0" />
        <mxCell id="1" parent="0" />
        <mxCell id="gu10VFRW0FJSJ6zA2KeF-1" value="&lt;h1&gt;&lt;font style=&quot;font-size: 14px;&quot; face=&quot;Verdana&quot;&gt;Patient&lt;/font&gt;&lt;/h1&gt;" style="whiteSpace=wrap;html=1;align=center;" parent="1" vertex="1">
          <mxGeometry x="-420" y="220" width="100" height="40" as="geometry" />
        </mxCell>
        <mxCell id="gu10VFRW0FJSJ6zA2KeF-2" value="&lt;h1&gt;&lt;font face=&quot;Verdana&quot; style=&quot;font-size: 14px;&quot;&gt;Doctor&lt;/font&gt;&lt;/h1&gt;" style="whiteSpace=wrap;html=1;align=center;" parent="1" vertex="1">
          <mxGeometry x="375" y="220" width="100" height="40" as="geometry" />
        </mxCell>
        <mxCell id="gu10VFRW0FJSJ6zA2KeF-5" value="&lt;h1&gt;&lt;font style=&quot;font-size: 12px;&quot; face=&quot;Verdana&quot;&gt;Appoinments&lt;/font&gt;&lt;/h1&gt;" style="whiteSpace=wrap;html=1;align=center;" parent="1" vertex="1">
          <mxGeometry x="-20" y="220" width="100" height="40" as="geometry" />
        </mxCell>
        <mxCell id="gu10VFRW0FJSJ6zA2KeF-6" value="&lt;h1&gt;&lt;font face=&quot;Verdana&quot; style=&quot;font-size: 14px;&quot;&gt;Department&lt;/font&gt;&lt;/h1&gt;" style="whiteSpace=wrap;html=1;align=center;" parent="1" vertex="1">
          <mxGeometry x="590" y="420" width="100" height="40" as="geometry" />
        </mxCell>
        <mxCell id="gu10VFRW0FJSJ6zA2KeF-8" value="Name" style="ellipse;whiteSpace=wrap;html=1;align=center;" parent="1" vertex="1">
          <mxGeometry x="-600" y="110" width="100" height="40" as="geometry" />
        </mxCell>
        <mxCell id="gu10VFRW0FJSJ6zA2KeF-9" value="" style="endArrow=none;html=1;rounded=0;entryX=0.25;entryY=0;entryDx=0;entryDy=0;exitX=1;exitY=1;exitDx=0;exitDy=0;" parent="1" source="gu10VFRW0FJSJ6zA2KeF-8" target="gu10VFRW0FJSJ6zA2KeF-1" edge="1">
          <mxGeometry relative="1" as="geometry">
            <mxPoint x="-230" y="160" as="sourcePoint" />
            <mxPoint x="-70" y="160" as="targetPoint" />
          </mxGeometry>
        </mxCell>
        <mxCell id="gu10VFRW0FJSJ6zA2KeF-14" value="" style="endArrow=none;html=1;rounded=0;exitX=0;exitY=1;exitDx=0;exitDy=0;entryX=1;entryY=0;entryDx=0;entryDy=0;" parent="1" source="gu10VFRW0FJSJ6zA2KeF-1" target="gu10VFRW0FJSJ6zA2KeF-48" edge="1">
          <mxGeometry relative="1" as="geometry">
            <mxPoint x="-90" y="250" as="sourcePoint" />
            <mxPoint x="-380" y="300" as="targetPoint" />
          </mxGeometry>
        </mxCell>
        <mxCell id="gu10VFRW0FJSJ6zA2KeF-21" value="Address" style="ellipse;whiteSpace=wrap;html=1;align=center;" parent="1" vertex="1">
          <mxGeometry x="-630" y="220" width="100" height="40" as="geometry" />
        </mxCell>
        <mxCell id="gu10VFRW0FJSJ6zA2KeF-23" value="" style="endArrow=none;html=1;rounded=0;entryX=0;entryY=0.5;entryDx=0;entryDy=0;exitX=1;exitY=0.5;exitDx=0;exitDy=0;" parent="1" source="gu10VFRW0FJSJ6zA2KeF-21" target="gu10VFRW0FJSJ6zA2KeF-1" edge="1">
          <mxGeometry relative="1" as="geometry">
            <mxPoint x="-200" y="195" as="sourcePoint" />
            <mxPoint x="-140" y="265" as="targetPoint" />
          </mxGeometry>
        </mxCell>
        <mxCell id="gu10VFRW0FJSJ6zA2KeF-24" value="" style="endArrow=none;html=1;rounded=0;entryX=0;entryY=0.5;entryDx=0;entryDy=0;exitX=1;exitY=1;exitDx=0;exitDy=0;" parent="1" source="gu10VFRW0FJSJ6zA2KeF-25" target="gu10VFRW0FJSJ6zA2KeF-1" edge="1">
          <mxGeometry relative="1" as="geometry">
            <mxPoint x="-260" y="140" as="sourcePoint" />
            <mxPoint x="-150" y="180" as="targetPoint" />
          </mxGeometry>
        </mxCell>
        <mxCell id="gu10VFRW0FJSJ6zA2KeF-25" value="Phone_Number" style="ellipse;shape=doubleEllipse;margin=3;whiteSpace=wrap;html=1;align=center;" parent="1" vertex="1">
          <mxGeometry x="-620" y="170" width="110" height="40" as="geometry" />
        </mxCell>
        <mxCell id="gu10VFRW0FJSJ6zA2KeF-26" value="" style="endArrow=none;html=1;rounded=0;entryX=0;entryY=0.5;entryDx=0;entryDy=0;exitX=1;exitY=0;exitDx=0;exitDy=0;" parent="1" source="gu10VFRW0FJSJ6zA2KeF-27" target="gu10VFRW0FJSJ6zA2KeF-1" edge="1">
          <mxGeometry relative="1" as="geometry">
            <mxPoint x="-240" y="320" as="sourcePoint" />
            <mxPoint x="-200" y="326" as="targetPoint" />
          </mxGeometry>
        </mxCell>
        <mxCell id="gu10VFRW0FJSJ6zA2KeF-27" value="Email_ID" style="ellipse;whiteSpace=wrap;html=1;align=center;" parent="1" vertex="1">
          <mxGeometry x="-630" y="280" width="100" height="40" as="geometry" />
        </mxCell>
        <mxCell id="gu10VFRW0FJSJ6zA2KeF-29" value="" style="endArrow=none;html=1;rounded=0;entryX=0.25;entryY=0;entryDx=0;entryDy=0;exitX=0.5;exitY=1;exitDx=0;exitDy=0;" parent="1" source="gu10VFRW0FJSJ6zA2KeF-31" target="gu10VFRW0FJSJ6zA2KeF-1" edge="1">
          <mxGeometry relative="1" as="geometry">
            <mxPoint x="-80" y="80" as="sourcePoint" />
            <mxPoint x="-80" y="90" as="targetPoint" />
          </mxGeometry>
        </mxCell>
        <mxCell id="gu10VFRW0FJSJ6zA2KeF-31" value="&lt;span style=&quot;color: rgb(29, 33, 37); text-align: left; background-color: rgb(255, 255, 255);&quot;&gt;&lt;font face=&quot;Helvetica&quot; style=&quot;font-size: 12px;&quot;&gt;Insurance&lt;/font&gt;&lt;/span&gt;&lt;div&gt;&lt;span style=&quot;color: rgb(29, 33, 37); text-align: left; background-color: rgb(255, 255, 255);&quot;&gt;&lt;font face=&quot;Helvetica&quot; style=&quot;font-size: 12px;&quot;&gt;Details&lt;/font&gt;&lt;/span&gt;&lt;/div&gt;" style="ellipse;whiteSpace=wrap;html=1;align=center;" parent="1" vertex="1">
          <mxGeometry x="-560" y="50" width="120" height="50" as="geometry" />
        </mxCell>
        <mxCell id="gu10VFRW0FJSJ6zA2KeF-37" value="&lt;div&gt;&amp;nbsp;&lt;/div&gt;&lt;div&gt;Appointment&lt;/div&gt;&lt;div&gt;Date&lt;/div&gt;&lt;div&gt;&lt;br&gt;&lt;/div&gt;" style="ellipse;whiteSpace=wrap;html=1;align=center;" parent="1" vertex="1">
          <mxGeometry x="130" y="100" width="100" height="40" as="geometry" />
        </mxCell>
        <mxCell id="gu10VFRW0FJSJ6zA2KeF-39" value="" style="endArrow=none;html=1;rounded=0;entryX=1;entryY=0;entryDx=0;entryDy=0;exitX=0;exitY=1;exitDx=0;exitDy=0;" parent="1" source="gu10VFRW0FJSJ6zA2KeF-37" target="gu10VFRW0FJSJ6zA2KeF-5" edge="1">
          <mxGeometry relative="1" as="geometry">
            <mxPoint x="50" y="160" as="sourcePoint" />
            <mxPoint x="50" y="225" as="targetPoint" />
          </mxGeometry>
        </mxCell>
        <mxCell id="gu10VFRW0FJSJ6zA2KeF-40" value="&lt;div&gt;&amp;nbsp;&lt;/div&gt;&lt;div&gt;Appointment&lt;/div&gt;&lt;div&gt;Time&lt;/div&gt;&lt;div&gt;&lt;br&gt;&lt;/div&gt;" style="ellipse;whiteSpace=wrap;html=1;align=center;" parent="1" vertex="1">
          <mxGeometry x="-140" y="90" width="100" height="40" as="geometry" />
        </mxCell>
        <mxCell id="gu10VFRW0FJSJ6zA2KeF-41" value="&lt;font style=&quot;font-size: 16px;&quot;&gt;Has&lt;/font&gt;" style="shape=rhombus;perimeter=rhombusPerimeter;whiteSpace=wrap;html=1;align=center;" parent="1" vertex="1">
          <mxGeometry x="-240" y="210" width="120" height="60" as="geometry" />
        </mxCell>
        <mxCell id="gu10VFRW0FJSJ6zA2KeF-48" value="Patient_ID" style="ellipse;whiteSpace=wrap;html=1;align=center;fontStyle=4;" parent="1" vertex="1">
          <mxGeometry x="-530" y="310" width="100" height="40" as="geometry" />
        </mxCell>
        <mxCell id="gu10VFRW0FJSJ6zA2KeF-54" value="" style="edgeStyle=entityRelationEdgeStyle;fontSize=12;html=1;endArrow=ERone;endFill=1;rounded=0;entryX=1;entryY=0.5;entryDx=0;entryDy=0;exitX=0;exitY=0.5;exitDx=0;exitDy=0;" parent="1" source="gu10VFRW0FJSJ6zA2KeF-41" target="gu10VFRW0FJSJ6zA2KeF-1" edge="1">
          <mxGeometry width="100" height="100" relative="1" as="geometry">
            <mxPoint x="-300" y="380" as="sourcePoint" />
            <mxPoint x="-200" y="280" as="targetPoint" />
          </mxGeometry>
        </mxCell>
        <mxCell id="gu10VFRW0FJSJ6zA2KeF-58" value="" style="edgeStyle=entityRelationEdgeStyle;fontSize=12;html=1;endArrow=ERoneToMany;rounded=0;exitX=1;exitY=0.5;exitDx=0;exitDy=0;entryX=0;entryY=0.5;entryDx=0;entryDy=0;" parent="1" source="gu10VFRW0FJSJ6zA2KeF-41" target="gu10VFRW0FJSJ6zA2KeF-5" edge="1">
          <mxGeometry width="100" height="100" relative="1" as="geometry">
            <mxPoint x="40" y="430" as="sourcePoint" />
            <mxPoint x="140" y="330" as="targetPoint" />
          </mxGeometry>
        </mxCell>
        <mxCell id="gu10VFRW0FJSJ6zA2KeF-59" value="" style="endArrow=none;html=1;rounded=0;entryX=0;entryY=0;entryDx=0;entryDy=0;exitX=1;exitY=1;exitDx=0;exitDy=0;" parent="1" source="gu10VFRW0FJSJ6zA2KeF-40" target="gu10VFRW0FJSJ6zA2KeF-5" edge="1">
          <mxGeometry relative="1" as="geometry">
            <mxPoint x="-80" y="150" as="sourcePoint" />
            <mxPoint x="-80" y="225" as="targetPoint" />
          </mxGeometry>
        </mxCell>
        <mxCell id="gu10VFRW0FJSJ6zA2KeF-61" value="" style="edgeStyle=entityRelationEdgeStyle;fontSize=12;html=1;endArrow=ERoneToMany;rounded=0;entryX=1;entryY=0.5;entryDx=0;entryDy=0;exitX=0;exitY=0.5;exitDx=0;exitDy=0;" parent="1" source="gu10VFRW0FJSJ6zA2KeF-64" target="gu10VFRW0FJSJ6zA2KeF-5" edge="1">
          <mxGeometry width="100" height="100" relative="1" as="geometry">
            <mxPoint x="170" y="240" as="sourcePoint" />
            <mxPoint x="210" y="259" as="targetPoint" />
          </mxGeometry>
        </mxCell>
        <mxCell id="gu10VFRW0FJSJ6zA2KeF-64" value="&lt;strong&gt;Schedules&lt;/strong&gt;" style="shape=rhombus;perimeter=rhombusPerimeter;whiteSpace=wrap;html=1;align=center;" parent="1" vertex="1">
          <mxGeometry x="170" y="210" width="120" height="60" as="geometry" />
        </mxCell>
        <mxCell id="gu10VFRW0FJSJ6zA2KeF-66" value="" style="edgeStyle=entityRelationEdgeStyle;fontSize=12;html=1;endArrow=ERone;endFill=1;rounded=0;entryX=0;entryY=0.5;entryDx=0;entryDy=0;exitX=1;exitY=0.5;exitDx=0;exitDy=0;" parent="1" source="gu10VFRW0FJSJ6zA2KeF-64" target="gu10VFRW0FJSJ6zA2KeF-2" edge="1">
          <mxGeometry width="100" height="100" relative="1" as="geometry">
            <mxPoint x="330" y="330" as="sourcePoint" />
            <mxPoint x="260" y="330" as="targetPoint" />
          </mxGeometry>
        </mxCell>
        <mxCell id="gu10VFRW0FJSJ6zA2KeF-72" value="Phone_Number" style="ellipse;shape=doubleEllipse;margin=3;whiteSpace=wrap;html=1;align=center;" parent="1" vertex="1">
          <mxGeometry x="520" y="110" width="110" height="40" as="geometry" />
        </mxCell>
        <mxCell id="gu10VFRW0FJSJ6zA2KeF-73" value="" style="endArrow=none;html=1;rounded=0;entryX=0.75;entryY=0;entryDx=0;entryDy=0;exitX=0;exitY=1;exitDx=0;exitDy=0;" parent="1" source="gu10VFRW0FJSJ6zA2KeF-72" target="gu10VFRW0FJSJ6zA2KeF-2" edge="1">
          <mxGeometry relative="1" as="geometry">
            <mxPoint x="510" y="180" as="sourcePoint" />
            <mxPoint x="515" y="260" as="targetPoint" />
          </mxGeometry>
        </mxCell>
        <mxCell id="gu10VFRW0FJSJ6zA2KeF-77" value="&lt;span style=&quot;font-size: 16px;&quot;&gt;Belongs&lt;/span&gt;" style="shape=rhombus;perimeter=rhombusPerimeter;whiteSpace=wrap;html=1;align=center;" parent="1" vertex="1">
          <mxGeometry x="580" y="210" width="120" height="60" as="geometry" />
        </mxCell>
        <mxCell id="gu10VFRW0FJSJ6zA2KeF-78" value="" style="fontSize=12;html=1;endArrow=ERoneToMany;rounded=0;exitX=0;exitY=0.5;exitDx=0;exitDy=0;entryX=1;entryY=0.5;entryDx=0;entryDy=0;" parent="1" source="gu10VFRW0FJSJ6zA2KeF-77" target="gu10VFRW0FJSJ6zA2KeF-2" edge="1">
          <mxGeometry width="100" height="100" relative="1" as="geometry">
            <mxPoint x="365" y="310" as="sourcePoint" />
            <mxPoint x="485" y="310" as="targetPoint" />
          </mxGeometry>
        </mxCell>
        <mxCell id="gu10VFRW0FJSJ6zA2KeF-80" value="" style="fontSize=12;html=1;endArrow=ERone;endFill=1;rounded=0;entryX=0.5;entryY=0;entryDx=0;entryDy=0;exitX=0.5;exitY=1;exitDx=0;exitDy=0;" parent="1" source="gu10VFRW0FJSJ6zA2KeF-77" target="gu10VFRW0FJSJ6zA2KeF-6" edge="1">
          <mxGeometry width="100" height="100" relative="1" as="geometry">
            <mxPoint x="450" y="440" as="sourcePoint" />
            <mxPoint x="340" y="440" as="targetPoint" />
          </mxGeometry>
        </mxCell>
        <mxCell id="6JeOsM3nBXqcz9y5_-nU-2" value="Notes" style="ellipse;whiteSpace=wrap;html=1;align=center;" vertex="1" parent="1">
          <mxGeometry x="-180" y="140" width="100" height="40" as="geometry" />
        </mxCell>
        <mxCell id="6JeOsM3nBXqcz9y5_-nU-3" value="" style="endArrow=none;html=1;rounded=0;entryX=1;entryY=1;entryDx=0;entryDy=0;exitX=0;exitY=0;exitDx=0;exitDy=0;" edge="1" parent="1" source="gu10VFRW0FJSJ6zA2KeF-5" target="6JeOsM3nBXqcz9y5_-nU-2">
          <mxGeometry relative="1" as="geometry">
            <mxPoint x="-40" y="200" as="sourcePoint" />
            <mxPoint x="-120" y="220" as="targetPoint" />
          </mxGeometry>
        </mxCell>
        <mxCell id="6JeOsM3nBXqcz9y5_-nU-4" value="&lt;h2&gt;&lt;font style=&quot;font-size: 13px;&quot;&gt;Medical_records&lt;/font&gt;&lt;/h2&gt;" style="whiteSpace=wrap;html=1;align=center;" vertex="1" parent="1">
          <mxGeometry x="-25" y="-10" width="110" height="40" as="geometry" />
        </mxCell>
        <mxCell id="6JeOsM3nBXqcz9y5_-nU-5" value="Medical_record&lt;div&gt;&lt;span style=&quot;background-color: initial;&quot;&gt;ID&lt;/span&gt;&lt;/div&gt;" style="ellipse;whiteSpace=wrap;html=1;align=center;fontStyle=4;" vertex="1" parent="1">
          <mxGeometry x="-150" y="-70" width="110" height="40" as="geometry" />
        </mxCell>
        <mxCell id="6JeOsM3nBXqcz9y5_-nU-6" value="" style="endArrow=none;html=1;rounded=0;entryX=1;entryY=1;entryDx=0;entryDy=0;exitX=0.5;exitY=0;exitDx=0;exitDy=0;" edge="1" parent="1" source="6JeOsM3nBXqcz9y5_-nU-4" target="6JeOsM3nBXqcz9y5_-nU-5">
          <mxGeometry relative="1" as="geometry">
            <mxPoint x="-216" y="-180" as="sourcePoint" />
            <mxPoint x="-216" y="-50" as="targetPoint" />
          </mxGeometry>
        </mxCell>
        <mxCell id="6JeOsM3nBXqcz9y5_-nU-7" value="&lt;div&gt;Diagnosis&lt;/div&gt;" style="ellipse;whiteSpace=wrap;html=1;align=center;" vertex="1" parent="1">
          <mxGeometry x="-125" y="-120" width="100" height="40" as="geometry" />
        </mxCell>
        <mxCell id="6JeOsM3nBXqcz9y5_-nU-8" value="" style="endArrow=none;html=1;rounded=0;exitX=0.5;exitY=0;exitDx=0;exitDy=0;entryX=1;entryY=1;entryDx=0;entryDy=0;" edge="1" parent="1" source="6JeOsM3nBXqcz9y5_-nU-4" target="6JeOsM3nBXqcz9y5_-nU-7">
          <mxGeometry relative="1" as="geometry">
            <mxPoint x="-75" y="-137.5" as="sourcePoint" />
            <mxPoint x="-165" y="-112" as="targetPoint" />
          </mxGeometry>
        </mxCell>
        <mxCell id="6JeOsM3nBXqcz9y5_-nU-9" value="Medications" style="ellipse;whiteSpace=wrap;html=1;align=center;" vertex="1" parent="1">
          <mxGeometry x="80" y="-120" width="100" height="40" as="geometry" />
        </mxCell>
        <mxCell id="6JeOsM3nBXqcz9y5_-nU-10" value="" style="endArrow=none;html=1;rounded=0;entryX=0.293;entryY=1.008;entryDx=0;entryDy=0;exitX=0.5;exitY=0;exitDx=0;exitDy=0;entryPerimeter=0;" edge="1" parent="1" source="6JeOsM3nBXqcz9y5_-nU-4" target="6JeOsM3nBXqcz9y5_-nU-9">
          <mxGeometry relative="1" as="geometry">
            <mxPoint x="-87" y="-165" as="sourcePoint" />
            <mxPoint x="-195" y="-50" as="targetPoint" />
          </mxGeometry>
        </mxCell>
        <mxCell id="6JeOsM3nBXqcz9y5_-nU-11" value="Treatments" style="ellipse;whiteSpace=wrap;html=1;align=center;" vertex="1" parent="1">
          <mxGeometry x="-20" y="-140" width="100" height="40" as="geometry" />
        </mxCell>
        <mxCell id="6JeOsM3nBXqcz9y5_-nU-12" value="" style="endArrow=none;html=1;rounded=0;entryX=0.5;entryY=1;entryDx=0;entryDy=0;exitX=0.5;exitY=0;exitDx=0;exitDy=0;" edge="1" parent="1" source="6JeOsM3nBXqcz9y5_-nU-4" target="6JeOsM3nBXqcz9y5_-nU-11">
          <mxGeometry relative="1" as="geometry">
            <mxPoint x="-105" y="-175" as="sourcePoint" />
            <mxPoint x="-105" y="-60" as="targetPoint" />
            <Array as="points" />
          </mxGeometry>
        </mxCell>
        <mxCell id="6JeOsM3nBXqcz9y5_-nU-13" value="Test&lt;div&gt;Results&lt;/div&gt;" style="ellipse;whiteSpace=wrap;html=1;align=center;" vertex="1" parent="1">
          <mxGeometry x="100" y="-70" width="110" height="40" as="geometry" />
        </mxCell>
        <mxCell id="6JeOsM3nBXqcz9y5_-nU-14" value="" style="endArrow=none;html=1;rounded=0;entryX=0;entryY=1;entryDx=0;entryDy=0;exitX=0.5;exitY=0;exitDx=0;exitDy=0;" edge="1" parent="1" source="6JeOsM3nBXqcz9y5_-nU-4" target="6JeOsM3nBXqcz9y5_-nU-13">
          <mxGeometry relative="1" as="geometry">
            <mxPoint x="-110" y="-195" as="sourcePoint" />
            <mxPoint x="5" y="-80" as="targetPoint" />
          </mxGeometry>
        </mxCell>
        <mxCell id="6JeOsM3nBXqcz9y5_-nU-16" value="Date_of_Birth" style="ellipse;whiteSpace=wrap;html=1;align=center;" vertex="1" parent="1">
          <mxGeometry x="-420" y="310" width="100" height="40" as="geometry" />
        </mxCell>
        <mxCell id="6JeOsM3nBXqcz9y5_-nU-17" value="" style="endArrow=none;html=1;rounded=0;exitX=0;exitY=0;exitDx=0;exitDy=0;entryX=0;entryY=1;entryDx=0;entryDy=0;" edge="1" parent="1" source="6JeOsM3nBXqcz9y5_-nU-16" target="gu10VFRW0FJSJ6zA2KeF-1">
          <mxGeometry relative="1" as="geometry">
            <mxPoint x="-280" y="270" as="sourcePoint" />
            <mxPoint x="-360" y="320" as="targetPoint" />
          </mxGeometry>
        </mxCell>
        <mxCell id="6JeOsM3nBXqcz9y5_-nU-18" value="&lt;font style=&quot;font-size: 12px;&quot;&gt;&amp;nbsp;&lt;span style=&quot;font-family: Verdana;&quot;&gt;Department&lt;/span&gt;&lt;/font&gt;&lt;div&gt;&lt;font style=&quot;font-size: 12px;&quot;&gt;Name&lt;/font&gt;&lt;/div&gt;" style="ellipse;whiteSpace=wrap;html=1;align=center;" vertex="1" parent="1">
          <mxGeometry x="450" y="455" width="100" height="50" as="geometry" />
        </mxCell>
        <mxCell id="6JeOsM3nBXqcz9y5_-nU-19" value="" style="endArrow=none;html=1;rounded=0;exitX=0.25;exitY=1;exitDx=0;exitDy=0;entryX=1;entryY=0.5;entryDx=0;entryDy=0;" edge="1" parent="1" source="gu10VFRW0FJSJ6zA2KeF-6" target="6JeOsM3nBXqcz9y5_-nU-18">
          <mxGeometry relative="1" as="geometry">
            <mxPoint x="720" y="290" as="sourcePoint" />
            <mxPoint x="630" y="290" as="targetPoint" />
          </mxGeometry>
        </mxCell>
        <mxCell id="6JeOsM3nBXqcz9y5_-nU-20" value="Appoinments_ID" style="ellipse;whiteSpace=wrap;html=1;align=center;fontStyle=4;" vertex="1" parent="1">
          <mxGeometry x="130" y="170" width="100" height="40" as="geometry" />
        </mxCell>
        <mxCell id="6JeOsM3nBXqcz9y5_-nU-21" value="" style="endArrow=none;html=1;rounded=0;entryX=1;entryY=0;entryDx=0;entryDy=0;exitX=0;exitY=0.5;exitDx=0;exitDy=0;" edge="1" parent="1" source="6JeOsM3nBXqcz9y5_-nU-20" target="gu10VFRW0FJSJ6zA2KeF-5">
          <mxGeometry relative="1" as="geometry">
            <mxPoint x="29.38" y="80" as="sourcePoint" />
            <mxPoint x="29.38" y="210" as="targetPoint" />
          </mxGeometry>
        </mxCell>
        <mxCell id="6JeOsM3nBXqcz9y5_-nU-22" value="Email_ID" style="ellipse;whiteSpace=wrap;html=1;align=center;" vertex="1" parent="1">
          <mxGeometry x="300" y="280" width="100" height="40" as="geometry" />
        </mxCell>
        <mxCell id="6JeOsM3nBXqcz9y5_-nU-23" value="" style="endArrow=none;html=1;rounded=0;entryX=1;entryY=0;entryDx=0;entryDy=0;exitX=0.5;exitY=1;exitDx=0;exitDy=0;" edge="1" parent="1" source="gu10VFRW0FJSJ6zA2KeF-2" target="6JeOsM3nBXqcz9y5_-nU-22">
          <mxGeometry relative="1" as="geometry">
            <mxPoint x="480" y="320" as="sourcePoint" />
            <mxPoint x="570" y="436" as="targetPoint" />
          </mxGeometry>
        </mxCell>
        <mxCell id="6JeOsM3nBXqcz9y5_-nU-24" value="Doctor&lt;div&gt;Name&lt;/div&gt;" style="ellipse;whiteSpace=wrap;html=1;align=center;" vertex="1" parent="1">
          <mxGeometry x="460" y="280" width="100" height="40" as="geometry" />
        </mxCell>
        <mxCell id="6JeOsM3nBXqcz9y5_-nU-25" value="" style="endArrow=none;html=1;rounded=0;entryX=0;entryY=0;entryDx=0;entryDy=0;exitX=0.5;exitY=1;exitDx=0;exitDy=0;" edge="1" parent="1" source="gu10VFRW0FJSJ6zA2KeF-2" target="6JeOsM3nBXqcz9y5_-nU-24">
          <mxGeometry relative="1" as="geometry">
            <mxPoint x="515" y="260" as="sourcePoint" />
            <mxPoint x="490" y="310" as="targetPoint" />
          </mxGeometry>
        </mxCell>
        <mxCell id="6JeOsM3nBXqcz9y5_-nU-28" value="Work_Schedule" style="ellipse;whiteSpace=wrap;html=1;align=center;" vertex="1" parent="1">
          <mxGeometry x="378" y="320" width="95" height="40" as="geometry" />
        </mxCell>
        <mxCell id="6JeOsM3nBXqcz9y5_-nU-29" value="" style="endArrow=none;html=1;rounded=0;entryX=0.5;entryY=0;entryDx=0;entryDy=0;exitX=0.5;exitY=1;exitDx=0;exitDy=0;" edge="1" parent="1" source="gu10VFRW0FJSJ6zA2KeF-2" target="6JeOsM3nBXqcz9y5_-nU-28">
          <mxGeometry relative="1" as="geometry">
            <mxPoint x="440" y="330" as="sourcePoint" />
            <mxPoint x="325.0000000000173" y="380" as="targetPoint" />
          </mxGeometry>
        </mxCell>
        <mxCell id="6JeOsM3nBXqcz9y5_-nU-30" value="Doctor_ID" style="ellipse;whiteSpace=wrap;html=1;align=center;fontStyle=4;" vertex="1" parent="1">
          <mxGeometry x="520" y="170" width="100" height="40" as="geometry" />
        </mxCell>
        <mxCell id="6JeOsM3nBXqcz9y5_-nU-31" value="" style="endArrow=none;html=1;rounded=0;entryX=0.75;entryY=0;entryDx=0;entryDy=0;exitX=0;exitY=0.5;exitDx=0;exitDy=0;" edge="1" parent="1" source="6JeOsM3nBXqcz9y5_-nU-30" target="gu10VFRW0FJSJ6zA2KeF-2">
          <mxGeometry relative="1" as="geometry">
            <mxPoint x="500" y="190" as="sourcePoint" />
            <mxPoint x="589.7993866870788" y="305.7962437509268" as="targetPoint" />
          </mxGeometry>
        </mxCell>
        <mxCell id="6JeOsM3nBXqcz9y5_-nU-33" value="&lt;span style=&quot;font-size: 16px;&quot;&gt;Updates&lt;/span&gt;" style="shape=rhombus;perimeter=rhombusPerimeter;whiteSpace=wrap;html=1;align=center;" vertex="1" parent="1">
          <mxGeometry x="-32.5" y="90" width="125" height="60" as="geometry" />
        </mxCell>
        <mxCell id="6JeOsM3nBXqcz9y5_-nU-34" value="" style="fontSize=12;html=1;endArrow=ERone;endFill=1;rounded=0;entryX=0.5;entryY=1;entryDx=0;entryDy=0;exitX=0.5;exitY=0;exitDx=0;exitDy=0;" edge="1" parent="1" source="6JeOsM3nBXqcz9y5_-nU-33" target="6JeOsM3nBXqcz9y5_-nU-4">
          <mxGeometry width="100" height="100" relative="1" as="geometry">
            <mxPoint x="25" y="40" as="sourcePoint" />
            <mxPoint x="90" y="-10" as="targetPoint" />
          </mxGeometry>
        </mxCell>
        <mxCell id="6JeOsM3nBXqcz9y5_-nU-35" value="" style="fontSize=12;html=1;endArrow=ERone;endFill=1;rounded=0;entryX=0.5;entryY=0;entryDx=0;entryDy=0;exitX=0.5;exitY=1;exitDx=0;exitDy=0;" edge="1" parent="1" source="6JeOsM3nBXqcz9y5_-nU-33" target="gu10VFRW0FJSJ6zA2KeF-5">
          <mxGeometry width="100" height="100" relative="1" as="geometry">
            <mxPoint x="250" y="10" as="sourcePoint" />
            <mxPoint x="180" y="10" as="targetPoint" />
          </mxGeometry>
        </mxCell>
        <mxCell id="6JeOsM3nBXqcz9y5_-nU-36" value="&lt;b&gt;Documents&lt;/b&gt;" style="shape=rhombus;perimeter=rhombusPerimeter;whiteSpace=wrap;html=1;align=center;" vertex="1" parent="1">
          <mxGeometry x="365" y="-20" width="120" height="60" as="geometry" />
        </mxCell>
        <mxCell id="6JeOsM3nBXqcz9y5_-nU-37" value="" style="fontSize=12;html=1;endArrow=ERone;endFill=1;rounded=0;entryX=0.5;entryY=0;entryDx=0;entryDy=0;exitX=0.5;exitY=1;exitDx=0;exitDy=0;" edge="1" parent="1" source="6JeOsM3nBXqcz9y5_-nU-36" target="gu10VFRW0FJSJ6zA2KeF-2">
          <mxGeometry width="100" height="100" relative="1" as="geometry">
            <mxPoint x="410" y="150" as="sourcePoint" />
            <mxPoint x="410" y="90" as="targetPoint" />
          </mxGeometry>
        </mxCell>
        <mxCell id="6JeOsM3nBXqcz9y5_-nU-38" value="" style="fontSize=12;html=1;endArrow=ERoneToMany;rounded=0;exitX=0;exitY=0.5;exitDx=0;exitDy=0;entryX=1;entryY=0.5;entryDx=0;entryDy=0;" edge="1" parent="1" source="6JeOsM3nBXqcz9y5_-nU-36" target="6JeOsM3nBXqcz9y5_-nU-4">
          <mxGeometry width="100" height="100" relative="1" as="geometry">
            <mxPoint x="200" y="40" as="sourcePoint" />
            <mxPoint x="320" y="40" as="targetPoint" />
          </mxGeometry>
        </mxCell>
        <mxCell id="6JeOsM3nBXqcz9y5_-nU-39" value="&lt;b&gt;Has&lt;/b&gt;" style="shape=rhombus;perimeter=rhombusPerimeter;whiteSpace=wrap;html=1;align=center;" vertex="1" parent="1">
          <mxGeometry x="-430" y="-20" width="120" height="60" as="geometry" />
        </mxCell>
        <mxCell id="6JeOsM3nBXqcz9y5_-nU-40" value="" style="fontSize=12;html=1;endArrow=ERone;endFill=1;rounded=0;entryX=0.5;entryY=0;entryDx=0;entryDy=0;exitX=0.5;exitY=1;exitDx=0;exitDy=0;" edge="1" parent="1" source="6JeOsM3nBXqcz9y5_-nU-39" target="gu10VFRW0FJSJ6zA2KeF-1">
          <mxGeometry width="100" height="100" relative="1" as="geometry">
            <mxPoint x="-340" y="-15" as="sourcePoint" />
            <mxPoint x="-340" y="215" as="targetPoint" />
          </mxGeometry>
        </mxCell>
        <mxCell id="6JeOsM3nBXqcz9y5_-nU-41" value="" style="fontSize=12;html=1;endArrow=ERoneToMany;rounded=0;exitX=1;exitY=0.5;exitDx=0;exitDy=0;entryX=0;entryY=0.5;entryDx=0;entryDy=0;" edge="1" parent="1" source="6JeOsM3nBXqcz9y5_-nU-39" target="6JeOsM3nBXqcz9y5_-nU-4">
          <mxGeometry width="100" height="100" relative="1" as="geometry">
            <mxPoint x="-60" y="-1" as="sourcePoint" />
            <mxPoint x="-340" y="-1" as="targetPoint" />
          </mxGeometry>
        </mxCell>
        <mxCell id="6JeOsM3nBXqcz9y5_-nU-43" value="" style="endArrow=none;html=1;rounded=0;entryX=0.5;entryY=1;entryDx=0;entryDy=0;exitX=0;exitY=0;exitDx=0;exitDy=0;" edge="1" parent="1" source="6JeOsM3nBXqcz9y5_-nU-44" target="gu10VFRW0FJSJ6zA2KeF-6">
          <mxGeometry relative="1" as="geometry">
            <mxPoint x="800" y="170" as="sourcePoint" />
            <mxPoint x="800" y="170" as="targetPoint" />
          </mxGeometry>
        </mxCell>
        <mxCell id="6JeOsM3nBXqcz9y5_-nU-44" value="Department_ID" style="ellipse;whiteSpace=wrap;html=1;align=center;fontStyle=4;" vertex="1" parent="1">
          <mxGeometry x="670" y="500" width="100" height="50" as="geometry" />
        </mxCell>
        <mxCell id="6JeOsM3nBXqcz9y5_-nU-45" value="Department&lt;div&gt;Head&amp;nbsp;&lt;br&gt;&lt;/div&gt;" style="ellipse;whiteSpace=wrap;html=1;align=center;" vertex="1" parent="1">
          <mxGeometry x="530" y="495" width="100" height="50" as="geometry" />
        </mxCell>
        <mxCell id="6JeOsM3nBXqcz9y5_-nU-46" value="" style="endArrow=none;html=1;rounded=0;exitX=0.5;exitY=1;exitDx=0;exitDy=0;entryX=1;entryY=0;entryDx=0;entryDy=0;" edge="1" parent="1" source="gu10VFRW0FJSJ6zA2KeF-6" target="6JeOsM3nBXqcz9y5_-nU-45">
          <mxGeometry relative="1" as="geometry">
            <mxPoint x="770" y="190" as="sourcePoint" />
            <mxPoint x="745" y="173" as="targetPoint" />
          </mxGeometry>
        </mxCell>
        <mxCell id="6JeOsM3nBXqcz9y5_-nU-47" value="&lt;h1&gt;&lt;font face=&quot;Verdana&quot;&gt;&lt;span style=&quot;font-size: 14px;&quot;&gt;Payment&lt;/span&gt;&lt;/font&gt;&lt;/h1&gt;" style="whiteSpace=wrap;html=1;align=center;" vertex="1" parent="1">
          <mxGeometry x="-230" y="420" width="100" height="40" as="geometry" />
        </mxCell>
        <mxCell id="6JeOsM3nBXqcz9y5_-nU-48" value="&lt;h1&gt;&lt;font face=&quot;Verdana&quot;&gt;&lt;span style=&quot;font-size: 14px;&quot;&gt;Billing&lt;/span&gt;&lt;/font&gt;&lt;/h1&gt;" style="whiteSpace=wrap;html=1;align=center;" vertex="1" parent="1">
          <mxGeometry x="180" y="420" width="100" height="40" as="geometry" />
        </mxCell>
        <mxCell id="6JeOsM3nBXqcz9y5_-nU-49" value="&lt;font face=&quot;Helvetica&quot; style=&quot;font-size: 14px;&quot;&gt;Generate&lt;/font&gt;" style="shape=rhombus;perimeter=rhombusPerimeter;whiteSpace=wrap;html=1;align=center;" vertex="1" parent="1">
          <mxGeometry x="-25" y="300" width="110" height="60" as="geometry" />
        </mxCell>
        <mxCell id="6JeOsM3nBXqcz9y5_-nU-51" value="" style="fontSize=12;html=1;endArrow=ERone;endFill=1;rounded=0;entryX=0.5;entryY=1;entryDx=0;entryDy=0;exitX=0.5;exitY=0;exitDx=0;exitDy=0;" edge="1" parent="1" source="6JeOsM3nBXqcz9y5_-nU-49" target="gu10VFRW0FJSJ6zA2KeF-5">
          <mxGeometry width="100" height="100" relative="1" as="geometry">
            <mxPoint x="100" y="280" as="sourcePoint" />
            <mxPoint x="50" y="640" as="targetPoint" />
          </mxGeometry>
        </mxCell>
        <mxCell id="6JeOsM3nBXqcz9y5_-nU-52" value="" style="fontSize=12;html=1;endArrow=ERone;endFill=1;rounded=0;exitX=1;exitY=0.5;exitDx=0;exitDy=0;entryX=0.5;entryY=0;entryDx=0;entryDy=0;" edge="1" parent="1" source="6JeOsM3nBXqcz9y5_-nU-49" target="6JeOsM3nBXqcz9y5_-nU-48">
          <mxGeometry width="100" height="100" relative="1" as="geometry">
            <mxPoint x="120" y="350" as="sourcePoint" />
            <mxPoint x="200" y="330" as="targetPoint" />
            <Array as="points">
              <mxPoint x="230" y="330" />
            </Array>
          </mxGeometry>
        </mxCell>
        <mxCell id="6JeOsM3nBXqcz9y5_-nU-53" value="" style="fontSize=12;html=1;endArrow=ERoneToMany;rounded=0;entryX=0.5;entryY=0;entryDx=0;entryDy=0;exitX=0.5;exitY=1;exitDx=0;exitDy=0;" edge="1" parent="1" source="gu10VFRW0FJSJ6zA2KeF-41" target="6JeOsM3nBXqcz9y5_-nU-47">
          <mxGeometry width="100" height="100" relative="1" as="geometry">
            <mxPoint x="-210" y="320" as="sourcePoint" />
            <mxPoint x="-100" y="320" as="targetPoint" />
          </mxGeometry>
        </mxCell>
        <mxCell id="6JeOsM3nBXqcz9y5_-nU-54" value="&lt;font style=&quot;font-size: 14px;&quot;&gt;Settles&amp;nbsp;&lt;/font&gt;" style="shape=rhombus;perimeter=rhombusPerimeter;whiteSpace=wrap;html=1;align=center;" vertex="1" parent="1">
          <mxGeometry x="-25" y="410" width="110" height="60" as="geometry" />
        </mxCell>
        <mxCell id="6JeOsM3nBXqcz9y5_-nU-55" value="" style="fontSize=12;html=1;endArrow=ERoneToMany;rounded=0;entryX=1;entryY=0.5;entryDx=0;entryDy=0;exitX=0;exitY=0.5;exitDx=0;exitDy=0;" edge="1" parent="1" source="6JeOsM3nBXqcz9y5_-nU-54" target="6JeOsM3nBXqcz9y5_-nU-47">
          <mxGeometry width="100" height="100" relative="1" as="geometry">
            <mxPoint x="-100" y="420" as="sourcePoint" />
            <mxPoint x="-100" y="570" as="targetPoint" />
          </mxGeometry>
        </mxCell>
        <mxCell id="6JeOsM3nBXqcz9y5_-nU-56" value="" style="fontSize=12;html=1;endArrow=ERone;endFill=1;rounded=0;entryX=0;entryY=0.5;entryDx=0;entryDy=0;exitX=1;exitY=0.5;exitDx=0;exitDy=0;" edge="1" parent="1" source="6JeOsM3nBXqcz9y5_-nU-54" target="6JeOsM3nBXqcz9y5_-nU-48">
          <mxGeometry width="100" height="100" relative="1" as="geometry">
            <mxPoint x="100" y="490" as="sourcePoint" />
            <mxPoint x="10" y="440" as="targetPoint" />
          </mxGeometry>
        </mxCell>
        <mxCell id="6JeOsM3nBXqcz9y5_-nU-57" value="Payment_ID" style="ellipse;whiteSpace=wrap;html=1;align=center;fontStyle=4;" vertex="1" parent="1">
          <mxGeometry x="-390" y="400" width="100" height="40" as="geometry" />
        </mxCell>
        <mxCell id="6JeOsM3nBXqcz9y5_-nU-58" value="" style="endArrow=none;html=1;rounded=0;exitX=0;exitY=0.5;exitDx=0;exitDy=0;entryX=1;entryY=0.5;entryDx=0;entryDy=0;" edge="1" parent="1" source="6JeOsM3nBXqcz9y5_-nU-47" target="6JeOsM3nBXqcz9y5_-nU-57">
          <mxGeometry relative="1" as="geometry">
            <mxPoint x="-270" y="500" as="sourcePoint" />
            <mxPoint x="-325" y="550" as="targetPoint" />
          </mxGeometry>
        </mxCell>
        <mxCell id="6JeOsM3nBXqcz9y5_-nU-59" value="Payment_Date" style="ellipse;whiteSpace=wrap;html=1;align=center;" vertex="1" parent="1">
          <mxGeometry x="-380" y="460" width="100" height="40" as="geometry" />
        </mxCell>
        <mxCell id="6JeOsM3nBXqcz9y5_-nU-60" value="" style="endArrow=none;html=1;rounded=0;exitX=0;exitY=0.5;exitDx=0;exitDy=0;entryX=1;entryY=0;entryDx=0;entryDy=0;" edge="1" parent="1" source="6JeOsM3nBXqcz9y5_-nU-47" target="6JeOsM3nBXqcz9y5_-nU-59">
          <mxGeometry relative="1" as="geometry">
            <mxPoint x="-220" y="490" as="sourcePoint" />
            <mxPoint x="-280" y="490" as="targetPoint" />
          </mxGeometry>
        </mxCell>
        <mxCell id="6JeOsM3nBXqcz9y5_-nU-61" value="Payment&lt;div&gt;Method&lt;/div&gt;" style="ellipse;whiteSpace=wrap;html=1;align=center;" vertex="1" parent="1">
          <mxGeometry x="-320" y="515" width="100" height="40" as="geometry" />
        </mxCell>
        <mxCell id="6JeOsM3nBXqcz9y5_-nU-62" value="" style="endArrow=none;html=1;rounded=0;exitX=0.25;exitY=1;exitDx=0;exitDy=0;entryX=1;entryY=0;entryDx=0;entryDy=0;" edge="1" parent="1" source="6JeOsM3nBXqcz9y5_-nU-47" target="6JeOsM3nBXqcz9y5_-nU-61">
          <mxGeometry relative="1" as="geometry">
            <mxPoint x="-100" y="510" as="sourcePoint" />
            <mxPoint x="-170" y="562" as="targetPoint" />
          </mxGeometry>
        </mxCell>
        <mxCell id="6JeOsM3nBXqcz9y5_-nU-63" value="Amount_Paid" style="ellipse;whiteSpace=wrap;html=1;align=center;" vertex="1" parent="1">
          <mxGeometry x="-200" y="515" width="100" height="40" as="geometry" />
        </mxCell>
        <mxCell id="6JeOsM3nBXqcz9y5_-nU-64" value="" style="endArrow=none;html=1;rounded=0;exitX=0.25;exitY=1;exitDx=0;exitDy=0;entryX=0;entryY=0;entryDx=0;entryDy=0;" edge="1" parent="1" source="6JeOsM3nBXqcz9y5_-nU-47" target="6JeOsM3nBXqcz9y5_-nU-63">
          <mxGeometry relative="1" as="geometry">
            <mxPoint x="-120" y="480" as="sourcePoint" />
            <mxPoint x="-160" y="540" as="targetPoint" />
          </mxGeometry>
        </mxCell>
        <mxCell id="6JeOsM3nBXqcz9y5_-nU-65" value="Billing_ID" style="ellipse;whiteSpace=wrap;html=1;align=center;fontStyle=4;" vertex="1" parent="1">
          <mxGeometry x="310" y="390" width="100" height="40" as="geometry" />
        </mxCell>
        <mxCell id="6JeOsM3nBXqcz9y5_-nU-66" value="" style="endArrow=none;html=1;rounded=0;exitX=0;exitY=0.5;exitDx=0;exitDy=0;entryX=1;entryY=0.5;entryDx=0;entryDy=0;" edge="1" parent="1" source="6JeOsM3nBXqcz9y5_-nU-65" target="6JeOsM3nBXqcz9y5_-nU-48">
          <mxGeometry relative="1" as="geometry">
            <mxPoint x="350" y="510" as="sourcePoint" />
            <mxPoint x="290" y="480" as="targetPoint" />
          </mxGeometry>
        </mxCell>
        <mxCell id="6JeOsM3nBXqcz9y5_-nU-68" value="Billing_Date" style="ellipse;whiteSpace=wrap;html=1;align=center;" vertex="1" parent="1">
          <mxGeometry x="310" y="455" width="100" height="40" as="geometry" />
        </mxCell>
        <mxCell id="6JeOsM3nBXqcz9y5_-nU-69" value="Total&lt;div&gt;Amount&lt;/div&gt;" style="ellipse;whiteSpace=wrap;html=1;align=center;" vertex="1" parent="1">
          <mxGeometry x="230" y="500" width="100" height="40" as="geometry" />
        </mxCell>
        <mxCell id="6JeOsM3nBXqcz9y5_-nU-70" value="Status" style="ellipse;whiteSpace=wrap;html=1;align=center;" vertex="1" parent="1">
          <mxGeometry x="100" y="495" width="100" height="40" as="geometry" />
        </mxCell>
        <mxCell id="6JeOsM3nBXqcz9y5_-nU-71" value="" style="endArrow=none;html=1;rounded=0;entryX=0.5;entryY=1;entryDx=0;entryDy=0;exitX=1;exitY=0;exitDx=0;exitDy=0;" edge="1" parent="1" source="6JeOsM3nBXqcz9y5_-nU-70" target="6JeOsM3nBXqcz9y5_-nU-48">
          <mxGeometry relative="1" as="geometry">
            <mxPoint x="155" y="480" as="sourcePoint" />
            <mxPoint x="130" y="590" as="targetPoint" />
          </mxGeometry>
        </mxCell>
        <mxCell id="6JeOsM3nBXqcz9y5_-nU-72" value="" style="endArrow=none;html=1;rounded=0;exitX=0.5;exitY=0;exitDx=0;exitDy=0;entryX=0.5;entryY=1;entryDx=0;entryDy=0;" edge="1" parent="1" source="6JeOsM3nBXqcz9y5_-nU-69" target="6JeOsM3nBXqcz9y5_-nU-48">
          <mxGeometry relative="1" as="geometry">
            <mxPoint x="280" y="590" as="sourcePoint" />
            <mxPoint x="250" y="590" as="targetPoint" />
          </mxGeometry>
        </mxCell>
        <mxCell id="6JeOsM3nBXqcz9y5_-nU-73" value="" style="endArrow=none;html=1;rounded=0;exitX=0;exitY=0.5;exitDx=0;exitDy=0;entryX=1;entryY=0.5;entryDx=0;entryDy=0;" edge="1" parent="1" source="6JeOsM3nBXqcz9y5_-nU-68" target="6JeOsM3nBXqcz9y5_-nU-48">
          <mxGeometry relative="1" as="geometry">
            <mxPoint x="340" y="570" as="sourcePoint" />
            <mxPoint x="310" y="570" as="targetPoint" />
          </mxGeometry>
        </mxCell>
      </root>
    </mxGraphModel>
  </diagram>
</mxfile>
